<svg xmlns="http://www.w3.org/2000/svg" viewBox="0 0 64 64" fill="none">
  <defs>
    <linearGradient id="g" x1="10" y1="6" x2="54" y2="58" gradientUnits="userSpaceOnUse">
      <stop stop-color="#38bdf8"/>
      <stop offset="0.55" stop-color="#a78bfa"/>
      <stop offset="1" stop-color="#22c55e"/>
    </linearGradient>
  </defs>
  <path d="M32 6c12.15 0 22 9.85 22 22 0 14.3-9.2 26.4-22 30C19.2 54.4 10 42.3 10 28 10 15.85 19.85 6 32 6Z" fill="url(#g)" opacity="0.95"/>
  <path d="M22 30.5c4.2-4.6 9.5-7.1 16-7.5 2.6-.2 4.9 1.8 5.1 4.4.2 2.6-1.8 4.9-4.4 5.1-4 .3-7.1 1.8-9.5 4.5-1.8 2-5 2.1-7 .3-2-1.8-2.1-5-.3-7Z" fill="#0b1220" opacity="0.9"/>
  <path d="M42.5 36.2c-2.8 3-6.3 5-10.6 5.8-2.6.5-5.1-1.2-5.6-3.8-.5-2.6 1.2-5.1 3.8-5.6 2.4-.5 4.3-1.6 5.9-3.4 1.8-2 5-2.1 7-.3 2 1.8 2.1 5 .3 7Z" fill="#0b1220" opacity="0.9"/>
</svg>
